<svg width="96" height="65" viewBox="0 0 96 65" fill="none" xmlns="http://www.w3.org/2000/svg">
<path fill-rule="evenodd" clip-rule="evenodd" d="M62.111 39.4238C63.517 39.4238 64.7895 39.6085 65.9282 39.9789C65.7701 40.792 65.6863 41.6317 65.6863 42.4907C65.6863 45.9737 67.0463 49.1384 69.2641 51.4843C68.562 52.2928 67.6725 52.9453 66.5967 53.4418C65.1673 54.1016 63.5071 54.4314 61.6162 54.4314C60.0768 54.4314 58.488 54.1673 56.85 53.6397C55.2121 53.112 53.7551 52.4193 52.4797 51.5615L54.7226 47.2072C56.8554 48.9224 58.9336 49.7802 60.9567 49.7802C62.1003 49.7802 62.991 49.5219 63.6287 49.0049C64.2664 48.4884 64.585 47.7792 64.585 46.8775C64.585 45.9761 64.2717 45.2888 63.6451 44.8161C63.0185 44.3431 62.0786 44.1066 60.8249 44.1066C57.9004 44.1066 55.7894 44.1505 54.4918 44.2388V31.0449H70.0275V32.7523C69.021 33.6581 68.1554 34.7176 67.4685 35.8936H60.0332V39.423H62.1114L62.111 39.4238Z" fill="#003889"/>
<path fill-rule="evenodd" clip-rule="evenodd" d="M79.1676 31.2301C85.5656 31.2301 90.7527 36.4167 90.7527 42.8147C90.7527 49.2127 85.566 54.3993 79.1676 54.3993C72.7696 54.3993 67.583 49.2127 67.583 42.8147C67.583 36.4167 72.7696 31.2301 79.1676 31.2301ZM77.3789 33.7238V35.2896C77.034 35.3183 76.8542 35.4349 76.5092 35.4637C76.4004 35.2575 76.3076 35.1089 76.2485 34.8547C75.2474 34.8547 74.4992 35.1635 73.8759 35.7868C73.1018 36.5613 73.3729 36.535 73.7264 37.2027C73.269 37.509 72.543 38.4346 72.242 38.9363C72.0465 39.2611 71.8658 39.5552 71.6885 39.9481C68.95 46.0069 73.8664 52.0752 78.858 52.0752C82.1188 52.0752 84.2886 51.0601 86.1894 48.5352C88.6872 45.2173 88.2449 40.3674 85.3611 37.4835C84.5444 36.6668 82.4182 35.315 81.293 35.2896C81.293 33.8113 81.4938 33.6918 80.5707 33.2286C80.2402 33.0627 79.9371 32.9744 79.6579 32.9412H79.1377C78.4039 33.0295 77.8524 33.4734 77.3793 33.7238H77.3789Z" fill="#003889"/>
<path fill-rule="evenodd" clip-rule="evenodd" d="M34.937 31.0453H53.3754V35.2345L44.6676 54.1677H38.2688L46.6797 35.8944H40.2805L40.2563 39.2628H34.937V31.0453Z" fill="#003889"/>
<path d="M11.7096 60.2528H12.4947V63.6451H11.7096V60.2528ZM10.1685 63.6451H9.38344V60.2528H10.1685V63.6451ZM11.7678 62.2543H10.1104V61.5903H11.7678V62.2543ZM14.945 63.7033C14.6769 63.7033 14.4281 63.6597 14.1987 63.5724C13.9726 63.4852 13.7755 63.3624 13.6075 63.2041C13.4427 63.0458 13.3135 62.8601 13.2198 62.6468C13.1293 62.4336 13.0841 62.201 13.0841 61.949C13.0841 61.697 13.1293 61.4643 13.2198 61.2511C13.3135 61.0379 13.4443 60.8521 13.6123 60.6938C13.7803 60.5355 13.9774 60.4127 14.2036 60.3255C14.4297 60.2382 14.6753 60.1946 14.9402 60.1946C15.2084 60.1946 15.4539 60.2382 15.6768 60.3255C15.903 60.4127 16.0984 60.5355 16.2632 60.6938C16.4312 60.8521 16.5621 61.0379 16.6558 61.2511C16.7495 61.4611 16.7963 61.6937 16.7963 61.949C16.7963 62.201 16.7495 62.4352 16.6558 62.6517C16.5621 62.8649 16.4312 63.0507 16.2632 63.209C16.0984 63.3641 15.903 63.4852 15.6768 63.5724C15.4539 63.6597 15.21 63.7033 14.945 63.7033ZM14.9402 63.0345C15.092 63.0345 15.231 63.0087 15.357 62.957C15.4862 62.9053 15.5993 62.831 15.6962 62.7341C15.7931 62.6371 15.8674 62.5224 15.9191 62.39C15.9741 62.2575 16.0015 62.1105 16.0015 61.949C16.0015 61.7874 15.9741 61.6404 15.9191 61.508C15.8674 61.3755 15.7931 61.2608 15.6962 61.1639C15.6025 61.067 15.4911 60.9926 15.3618 60.9409C15.2326 60.8893 15.092 60.8634 14.9402 60.8634C14.7884 60.8634 14.6478 60.8893 14.5186 60.9409C14.3926 60.9926 14.2811 61.067 14.1842 61.1639C14.0873 61.2608 14.0113 61.3755 13.9564 61.508C13.9047 61.6404 13.8789 61.7874 13.8789 61.949C13.8789 62.1073 13.9047 62.2543 13.9564 62.39C14.0113 62.5224 14.0857 62.6371 14.1793 62.7341C14.2763 62.831 14.3893 62.9053 14.5186 62.957C14.6478 63.0087 14.7884 63.0345 14.9402 63.0345ZM18.8935 63.7033C18.4121 63.7033 18.0357 63.5692 17.7643 63.3011C17.4929 63.0329 17.3573 62.6501 17.3573 62.1525V60.2528H18.1423V62.1234C18.1423 62.4465 18.2086 62.6791 18.341 62.8213C18.4735 62.9634 18.6593 63.0345 18.8984 63.0345C19.1374 63.0345 19.3232 62.9634 19.4557 62.8213C19.5881 62.6791 19.6544 62.4465 19.6544 62.1234V60.2528H20.4298V62.1525C20.4298 62.6501 20.2941 63.0329 20.0227 63.3011C19.7513 63.5692 19.3749 63.7033 18.8935 63.7033ZM21.2056 63.6451V60.2528H22.674C22.9777 60.2528 23.2394 60.3029 23.4591 60.403C23.6788 60.4999 23.8484 60.6405 23.9679 60.8246C24.0875 61.0088 24.1472 61.2285 24.1472 61.4837C24.1472 61.7357 24.0875 61.9538 23.9679 62.138C23.8484 62.3189 23.6788 62.4578 23.4591 62.5547C23.2394 62.6517 22.9777 62.7001 22.674 62.7001H21.6417L21.9907 62.356V63.6451H21.2056ZM23.3621 63.6451L22.5141 62.4142H23.3524L24.2102 63.6451H23.3621ZM21.9907 62.4433L21.6417 62.075H22.6304C22.8727 62.075 23.0536 62.0233 23.1731 61.9199C23.2927 61.8133 23.3524 61.6679 23.3524 61.4837C23.3524 61.2963 23.2927 61.151 23.1731 61.0476C23.0536 60.9442 22.8727 60.8925 22.6304 60.8925H21.6417L21.9907 60.5193V62.4433ZM25.8839 63.7033C25.6125 63.7033 25.3524 63.6678 25.1036 63.5967C24.8549 63.5224 24.6546 63.4271 24.5027 63.3108L24.7693 62.7195C24.9146 62.8229 25.0859 62.9085 25.283 62.9764C25.4833 63.041 25.6852 63.0733 25.8887 63.0733C26.0438 63.0733 26.1682 63.0587 26.2619 63.0297C26.3588 62.9974 26.4299 62.9537 26.4751 62.8988C26.5204 62.8439 26.543 62.7809 26.543 62.7098C26.543 62.6194 26.5074 62.5483 26.4364 62.4966C26.3653 62.4417 26.2716 62.398 26.1553 62.3657C26.039 62.3302 25.9097 62.2979 25.7676 62.2688C25.6286 62.2365 25.4881 62.1977 25.346 62.1525C25.207 62.1073 25.0794 62.0491 24.9631 61.978C24.8468 61.907 24.7515 61.8133 24.6772 61.697C24.6061 61.5807 24.5706 61.432 24.5706 61.2511C24.5706 61.0573 24.6222 60.8812 24.7256 60.7229C24.8323 60.5613 24.9906 60.4337 25.2006 60.34C25.4138 60.2431 25.6803 60.1946 26.0002 60.1946C26.2134 60.1946 26.4234 60.2205 26.6302 60.2722C26.837 60.3206 27.0195 60.3949 27.1778 60.4951L26.9355 61.0912C26.7772 61.0007 26.6189 60.9345 26.4606 60.8925C26.3023 60.8473 26.1472 60.8246 25.9953 60.8246C25.8435 60.8246 25.7191 60.8424 25.6222 60.8779C25.5253 60.9135 25.4558 60.9603 25.4138 61.0185C25.3718 61.0734 25.3508 61.138 25.3508 61.2123C25.3508 61.2996 25.3863 61.3706 25.4574 61.4256C25.5285 61.4773 25.6222 61.5193 25.7385 61.5516C25.8548 61.5839 25.9824 61.6162 26.1213 61.6485C26.2635 61.6808 26.404 61.718 26.543 61.76C26.6851 61.802 26.8144 61.8585 26.9307 61.9296C27.047 62.0007 27.1407 62.0944 27.2117 62.2107C27.2861 62.327 27.3232 62.474 27.3232 62.6517C27.3232 62.8423 27.2699 63.0167 27.1633 63.1751C27.0567 63.3334 26.8967 63.461 26.6835 63.5579C26.4735 63.6548 26.207 63.7033 25.8839 63.7033ZM29.9348 63.6451V60.8925H28.8493V60.2528H31.8055V60.8925H30.7199V63.6451H29.9348ZM32.2279 63.6451V60.2528H33.6963C34 60.2528 34.2617 60.3029 34.4814 60.403C34.7011 60.4999 34.8707 60.6405 34.9902 60.8246C35.1098 61.0088 35.1695 61.2285 35.1695 61.4837C35.1695 61.7357 35.1098 61.9538 34.9902 62.138C34.8707 62.3189 34.7011 62.4578 34.4814 62.5547C34.2617 62.6517 34 62.7001 33.6963 62.7001H32.6641L33.013 62.356V63.6451H32.2279ZM34.3845 63.6451L33.5364 62.4142H34.3748L35.2326 63.6451H34.3845ZM33.013 62.4433L32.6641 62.075H33.6527C33.895 62.075 34.0759 62.0233 34.1955 61.9199C34.315 61.8133 34.3748 61.6679 34.3748 61.4837C34.3748 61.2963 34.315 61.151 34.1955 61.0476C34.0759 60.9442 33.895 60.8925 33.6527 60.8925H32.6641L33.013 60.5193V62.4433ZM35.3457 63.6451L36.8577 60.2528H37.6331L39.15 63.6451H38.3261L37.0855 60.6502H37.3957L36.1502 63.6451H35.3457ZM36.1017 62.9182L36.3101 62.3221H38.0548L38.268 62.9182H36.1017ZM41.0781 63.7033C40.8164 63.7033 40.5725 63.6613 40.3463 63.5773C40.1234 63.4901 39.9296 63.3673 39.7648 63.209C39.6 63.0507 39.4708 62.8649 39.3771 62.6517C39.2866 62.4384 39.2414 62.2042 39.2414 61.949C39.2414 61.6937 39.2866 61.4595 39.3771 61.2463C39.4708 61.033 39.6 60.8473 39.7648 60.6889C39.9328 60.5306 40.1283 60.4095 40.3512 60.3255C40.5741 60.2382 40.818 60.1946 41.083 60.1946C41.377 60.1946 41.6419 60.2463 41.8777 60.3497C42.1168 60.4499 42.3171 60.5985 42.4787 60.7956L41.9747 61.2608C41.8584 61.1283 41.7291 61.0298 41.587 60.9652C41.4448 60.8973 41.2897 60.8634 41.1217 60.8634C40.9634 60.8634 40.818 60.8893 40.6856 60.9409C40.5531 60.9926 40.4384 61.067 40.3415 61.1639C40.2446 61.2608 40.1686 61.3755 40.1137 61.508C40.062 61.6404 40.0362 61.7874 40.0362 61.949C40.0362 62.1105 40.062 62.2575 40.1137 62.39C40.1686 62.5224 40.2446 62.6371 40.3415 62.7341C40.4384 62.831 40.5531 62.9053 40.6856 62.957C40.818 63.0087 40.9634 63.0345 41.1217 63.0345C41.2897 63.0345 41.4448 63.0022 41.587 62.9376C41.7291 62.8697 41.8584 62.768 41.9747 62.6323L42.4787 63.0975C42.3171 63.2946 42.1168 63.4448 41.8777 63.5482C41.6419 63.6516 41.3754 63.7033 41.0781 63.7033ZM43.7115 62.8697L43.6679 61.9635L45.2914 60.2528H46.1637L44.7002 61.8278L44.264 62.293L43.7115 62.8697ZM43.0088 63.6451V60.2528H43.7891V63.6451H43.0088ZM45.3302 63.6451L44.1235 62.167L44.6372 61.6097L46.2461 63.6451H45.3302ZM47.3183 61.6194H48.9515V62.23H47.3183V61.6194ZM47.3764 63.0151H49.2228V63.6451H46.5962V60.2528H49.1598V60.8828H47.3764V63.0151ZM49.8475 63.6451V60.2528H51.3159C51.6196 60.2528 51.8813 60.3029 52.101 60.403C52.3207 60.4999 52.4903 60.6405 52.6099 60.8246C52.7294 61.0088 52.7892 61.2285 52.7892 61.4837C52.7892 61.7357 52.7294 61.9538 52.6099 62.138C52.4903 62.3189 52.3207 62.4578 52.101 62.5547C51.8813 62.6517 51.6196 62.7001 51.3159 62.7001H50.2837L50.6326 62.356V63.6451H49.8475ZM52.0041 63.6451L51.156 62.4142H51.9944L52.8522 63.6451H52.0041ZM50.6326 62.4433L50.2837 62.075H51.2723C51.5146 62.075 51.6955 62.0233 51.8151 61.9199C51.9346 61.8133 51.9944 61.6679 51.9944 61.4837C51.9944 61.2963 51.9346 61.151 51.8151 61.0476C51.6955 60.9442 51.5146 60.8925 51.2723 60.8925H50.2837L50.6326 60.5193V62.4433Z" fill="#CD932A"/>
<path d="M16.0241 49.58V41.0422H17.6584L21.2931 47.0674H20.4271L24.0008 41.0422H25.623L25.6474 49.58H23.7935L23.7813 43.884H24.1228L21.2687 48.6774H20.3783L17.4633 43.884H17.878V49.58H16.0241ZM29.7953 49.58V46.0917L30.2466 47.2869L26.4899 41.0422H28.5878L31.4662 45.8355H30.2587L33.1494 41.0422H35.0887L31.3321 47.2869L31.7712 46.0917V49.58H29.7953Z" fill="#CD932A"/>
<path fill-rule="evenodd" clip-rule="evenodd" d="M81.0615 56.8196C86.3311 58.7458 92.0093 60.0549 93.1709 60.3144L93.2826 60.452C93.2826 60.452 93.2826 60.413 93.2818 60.3391C93.3504 60.3538 93.3873 60.3621 93.3873 60.3621L93.2806 60.2307C93.2674 59.06 93.1648 53.404 92.4059 47.9336C91.0274 52.9589 86.49 56.6775 81.0615 56.8196Z" fill="#CD932A"/>
<path fill-rule="evenodd" clip-rule="evenodd" d="M83.1201 46.8906C83.0815 46.9296 83.0178 46.9296 82.9792 46.8906L82.466 46.3773C82.4274 46.3387 82.4274 46.2751 82.466 46.2365C82.5046 46.1979 82.5682 46.1979 82.6068 46.2365L83.1201 46.7498C83.1591 46.7884 83.1591 46.8516 83.1201 46.8906Z" fill="white"/>
<path fill-rule="evenodd" clip-rule="evenodd" d="M84.3599 43.2688C84.3599 43.3235 84.3151 43.3682 84.2601 43.3682H83.5341C83.4795 43.3682 83.4343 43.3235 83.4343 43.2688C83.4343 43.2138 83.4791 43.1691 83.5341 43.1691H84.2601C84.3147 43.1691 84.3599 43.2138 84.3599 43.2688Z" fill="white"/>
<path fill-rule="evenodd" clip-rule="evenodd" d="M82.6755 39.8312C82.7141 39.8697 82.7141 39.933 82.6755 39.972L82.1622 40.4853C82.1232 40.5243 82.0604 40.5243 82.0214 40.4853C81.9828 40.4467 81.9828 40.3834 82.0214 40.3448L82.5347 39.8316C82.5733 39.793 82.6365 39.793 82.6755 39.8316V39.8312Z" fill="white"/>
<path fill-rule="evenodd" clip-rule="evenodd" d="M75.6159 40.2763C75.6545 40.2377 75.7177 40.2377 75.7567 40.2763L76.27 40.7895C76.3086 40.8281 76.3086 40.8914 76.27 40.9304C76.2314 40.969 76.1682 40.969 76.1291 40.9304L75.6159 40.4171C75.5773 40.3785 75.5773 40.3153 75.6159 40.2763Z" fill="white"/>
<path fill-rule="evenodd" clip-rule="evenodd" d="M74.3762 43.898C74.3762 43.8433 74.421 43.7986 74.476 43.7986H75.202C75.2566 43.7986 75.3014 43.8433 75.3014 43.898C75.3014 43.9526 75.2566 43.9973 75.202 43.9973H74.476C74.4214 43.9973 74.3762 43.9526 74.3762 43.898Z" fill="white"/>
<path fill-rule="evenodd" clip-rule="evenodd" d="M76.0607 47.3353C76.0221 47.2967 76.0221 47.2335 76.0607 47.1945L76.574 46.6812C76.6126 46.6426 76.6758 46.6426 76.7148 46.6812C76.7534 46.7198 76.7534 46.783 76.7148 46.822L76.2015 47.3353C76.1629 47.3739 76.0997 47.3739 76.0607 47.3353Z" fill="white"/>
<path fill-rule="evenodd" clip-rule="evenodd" d="M79.6823 48.5755C79.6273 48.5755 79.5825 48.5307 79.5825 48.4757V47.7497C79.5825 47.6951 79.6273 47.6499 79.6823 47.6499C79.7369 47.6499 79.7817 47.6947 79.7817 47.7497V48.4757C79.7817 48.5303 79.7369 48.5755 79.6823 48.5755Z" fill="white"/>
<path fill-rule="evenodd" clip-rule="evenodd" d="M79.3678 35.1725C79.5579 35.1725 79.7489 35.1894 79.939 35.2255C79.9862 35.2345 80.0269 35.2649 80.0269 35.3134V35.733C80.0269 35.756 80.0182 35.7762 80.0043 35.7922C80.3816 35.825 80.7553 35.8858 81.122 35.9724L81.1655 35.9827L81.2263 35.9979L81.3322 36.0254L81.3597 36.0328C81.8242 36.1576 82.2791 36.3272 82.7177 36.5403L82.7399 36.551C82.7748 36.5679 82.8097 36.5859 82.8446 36.6032L82.893 36.6282L82.9444 36.6553C84.044 37.2327 85.0164 38.0806 85.7539 39.1671C86.7016 40.5641 87.1393 42.177 87.0892 43.7678C87.0227 45.8792 86.02 47.9114 84.5015 49.3343C82.0833 51.5997 78.2279 52.0185 75.4176 50.25C73.254 48.8887 71.7285 46.3892 71.6459 43.7682C71.5959 42.177 72.0332 40.5645 72.9809 39.1675C73.718 38.081 74.6903 37.2335 75.7908 36.6557L75.8422 36.6286L75.8906 36.6036C75.9255 36.5863 75.9604 36.5687 75.9953 36.5514L76.0175 36.5407C76.4565 36.3272 76.911 36.1581 77.3754 36.0332L77.403 36.0258L77.5089 35.9983L77.5697 35.9831L77.6136 35.9729C77.9807 35.8858 78.3544 35.8254 78.7313 35.7926C78.7174 35.7766 78.7087 35.7565 78.7087 35.7335V35.3138C78.7087 35.2653 78.7494 35.235 78.7966 35.2259C78.9867 35.1902 79.1777 35.173 79.3678 35.173V35.1725ZM76.1345 36.2685L75.7674 35.6324C75.147 35.7055 74.5844 36.0303 74.2111 36.5309L74.5782 37.1665C75.0394 36.7678 75.5568 36.466 76.1341 36.2685H76.1345ZM79.6823 48.575C79.6273 48.575 79.5826 48.5303 79.5826 48.4752V47.7492C79.5826 47.6946 79.6273 47.6495 79.6823 47.6495C79.737 47.6495 79.7817 47.6942 79.7817 47.7492V48.4752C79.7817 48.5298 79.737 48.575 79.6823 48.575ZM76.0606 47.3353C76.022 47.2967 76.022 47.2335 76.0606 47.1945L76.5739 46.6812C76.6125 46.6426 76.6757 46.6426 76.7147 46.6812C76.7533 46.7198 76.7533 46.783 76.7147 46.822L76.2015 47.3353C76.1629 47.3739 76.0996 47.3739 76.0606 47.3353ZM74.3762 43.8976C74.3762 43.8429 74.421 43.7982 74.476 43.7982H75.202C75.2566 43.7982 75.3014 43.8429 75.3014 43.8976C75.3014 43.9522 75.2566 43.9969 75.202 43.9969H74.476C74.4214 43.9969 74.3762 43.9522 74.3762 43.8976ZM75.6159 40.2758C75.6545 40.2372 75.7177 40.2372 75.7567 40.2758L76.27 40.7891C76.3086 40.8277 76.3086 40.8909 76.27 40.93C76.2314 40.9685 76.1682 40.9685 76.1292 40.93L75.6159 40.4167C75.5773 40.3781 75.5773 40.3148 75.6159 40.2758ZM82.6754 39.8311C82.714 39.8697 82.714 39.9329 82.6754 39.972L82.1621 40.4852C82.1231 40.5242 82.0603 40.5242 82.0213 40.4852C81.9827 40.4466 81.9827 40.3834 82.0213 40.3448L82.5346 39.8315C82.5732 39.7929 82.6364 39.7929 82.6754 39.8315V39.8311ZM84.3598 43.2689C84.3598 43.3235 84.315 43.3682 84.26 43.3682H83.534C83.4794 43.3682 83.4342 43.3235 83.4342 43.2689C83.4342 43.2139 83.479 43.1691 83.534 43.1691H84.26C84.3146 43.1691 84.3598 43.2139 84.3598 43.2689ZM83.1201 46.8906C83.0815 46.9296 83.0179 46.9296 82.9793 46.8906L82.466 46.3773C82.4274 46.3387 82.4274 46.2751 82.466 46.2365C82.5046 46.1979 82.5682 46.1979 82.6068 46.2365L83.1201 46.7498C83.1591 46.7884 83.1591 46.8516 83.1201 46.8906ZM80.5693 35.0933V34.1074C80.2125 33.8413 79.7912 33.7041 79.3678 33.6959C78.9448 33.7037 78.5235 33.8409 78.1667 34.1074V35.0933C78.5671 34.9676 78.9674 34.9122 79.3678 34.9134C79.7686 34.9122 80.1685 34.9676 80.5693 35.0933ZM83.989 47.0684C84.6345 46.1774 85.0558 45.1245 85.1527 44.0651C85.3059 42.3942 84.7429 40.6704 83.4638 39.3913C82.3641 38.2917 80.9356 37.7213 79.4947 37.6807L79.429 37.679L79.3674 37.6778L79.3058 37.679L79.2401 37.6807C77.7992 37.7217 76.371 38.2921 75.2714 39.3913C73.9923 40.6704 73.4293 42.3942 73.5825 44.0651C73.7233 45.6037 74.5479 47.128 75.7514 48.164C78.2653 50.3276 82.048 49.7465 83.9886 47.0684H83.989Z" fill="#CD932A"/>
<path fill-rule="evenodd" clip-rule="evenodd" d="M79.5419 38.5913C79.5965 38.5913 79.6417 38.6361 79.6417 38.6911V39.4171C79.6417 39.4717 79.5969 39.5169 79.5419 39.5169C79.4873 39.5169 79.4421 39.4721 79.4421 39.4171V38.6911C79.4421 38.6365 79.4869 38.5913 79.5419 38.5913Z" fill="#CD932A"/>
<path fill-rule="evenodd" clip-rule="evenodd" d="M78.9707 44.4013L77.0366 44.1151L78.9202 43.8453C78.9387 43.7997 78.9637 43.7554 78.9941 43.7143C79.0458 43.6445 79.1099 43.5891 79.1813 43.5488L79.6014 40.0413L79.8285 43.5809L79.84 43.5891C80.1081 43.7882 80.164 44.1664 79.9648 44.4346C79.7657 44.7023 79.3871 44.7585 79.1193 44.5594C79.059 44.5146 79.0093 44.4604 78.9711 44.4009L78.9707 44.4013Z" fill="#CD932A"/>
<path fill-rule="evenodd" clip-rule="evenodd" d="M40.1843 4.01458L39.5433 4.08685C39.5158 4.05934 39.4702 3.97721 39.4595 3.96202L39.3331 3.80926C39.1799 3.8417 39.1672 3.88482 38.943 3.83966C38.5438 3.75835 38.7175 3.89673 38.4868 3.61463C37.6959 3.4167 23.0985 0.532459 22.1799 0.545599C22.4834 1.20507 39.0542 21.1965 41.518 24.1895C41.8096 24.5439 41.8794 24.7242 42.2436 24.927C42.823 24.6388 49.2132 17.7357 49.9059 17.0368C51.1813 15.7503 52.4489 14.3981 53.6997 13.0804C54.7813 11.9405 54.298 12.0892 56.2349 11.7405C57.3292 11.5438 58.4552 11.3566 59.5051 11.1287C58.6785 10.9378 61.0737 10.6183 61.0787 10.6175L61.6962 10.374C61.6979 10.0048 61.5657 10.0249 61.2651 9.72517C59.2924 7.76073 59.9301 7.99602 57.5842 7.57554C57.2475 7.51559 56.9724 7.431 56.6233 7.37023C55.4908 7.17107 55.8399 7.21624 55.72 6.95919L51.5188 6.09153C51.3037 6.06566 50.9353 6.11782 51.0097 5.91825L50.6405 5.91578L50.6118 5.8505C50.1995 5.40784 50.3527 3.86429 50.3642 3.03277C50.374 2.29816 50.4459 1.12951 50.2993 0.503715C49.6603 0.438425 48.396 0.330021 47.8659 0.566953C47.2742 1.65265 48.2732 7.72747 47.4536 8.95443C46.9137 8.69614 46.3244 8.5052 45.7286 8.2194C45.2395 7.98534 44.5209 7.70201 44.0684 7.44701L44.0269 4.89004C43.4398 4.76972 40.7974 4.33199 40.3342 4.11436L40.1843 4.01417V4.01458Z" fill="#CD932A"/>
<path fill-rule="evenodd" clip-rule="evenodd" d="M49.8753 20.2319C49.6971 20.5144 49.7612 20.4269 49.5382 20.6651C49.3653 20.8499 49.3078 20.8955 49.1346 21.0806L46.0002 24.286C45.6935 24.6063 45.5021 24.7989 45.195 25.1253C44.6764 25.678 44.2095 26.1967 43.6687 26.7526C43.9759 26.7526 56.6811 26.7715 57.1401 27.0311C59.1851 26.7793 65.0858 27.3858 66.4154 26.9695L77.2876 13.7723C77.6785 13.2582 80.7299 9.75021 80.9249 9.21558L72.0755 10.9008C69.1362 11.4913 66.1078 12.0391 63.2417 12.6184C61.8225 12.9055 60.3603 13.1978 58.9317 13.4627C58.2213 13.5945 57.5155 13.7374 56.7213 13.8795C55.5798 14.084 55.7034 14.2622 55.0681 14.918L49.8753 20.2315V20.2319Z" fill="#CD932A"/>
<path fill-rule="evenodd" clip-rule="evenodd" d="M0 27.4285L8.48726 28.0814C8.29755 23.9883 7.12192 25.9248 10.5843 21.8641C13.9162 17.9562 17.3219 13.6105 20.6533 9.73953L22.5697 7.31601C21.9739 6.75345 19.628 4.21043 19.111 3.97473C18.7443 4.34183 18.2869 4.93437 17.9346 5.3799C17.5149 5.91043 17.1104 6.33543 16.708 6.85364L11.9616 12.6755C11.0553 13.7333 10.3971 14.6359 9.55324 15.6673C7.90909 17.6778 6.32694 19.5671 4.74192 21.5442L0 27.4289V27.4285Z" fill="#CD932A"/>
<path fill-rule="evenodd" clip-rule="evenodd" d="M80.7175 13.836C80.9749 14.3731 81.6081 15.0362 82.0327 15.492C83.2523 16.8015 85.0434 19.1885 86.0671 20.2668L90.1036 25.0391C90.6509 25.7027 90.1832 26.6291 90.0752 27.6458L95.6733 27.275C95.328 26.5864 83.4025 11.9417 83.1057 11.6892C82.6047 11.9483 81.0041 13.3744 80.717 13.8351L80.7175 13.836Z" fill="#CD932A"/>
<path fill-rule="evenodd" clip-rule="evenodd" d="M25.2976 18.7306L25.3272 23.3695C26.157 23.3851 28.8614 23.4877 29.4844 23.303L29.4839 18.8308C28.6799 18.5898 26.3435 18.8312 25.2976 18.7306Z" fill="#CD932A"/>
<path fill-rule="evenodd" clip-rule="evenodd" d="M20.0366 23.314L24.2 23.3305L24.2012 18.8382L20.0502 18.8173L20.0366 23.314Z" fill="#CD932A"/>
<path fill-rule="evenodd" clip-rule="evenodd" d="M25.2791 17.881L29.4802 17.856L29.3627 17.1637C29.286 15.6176 27.2074 13.5789 25.5341 13.4894L25.3181 13.4647L25.2791 17.8806V17.881Z" fill="#CD932A"/>
<path fill-rule="evenodd" clip-rule="evenodd" d="M23.0941 13.7275L22.7237 13.9073C22.6194 14.0502 22.9713 14.1241 22.4921 14.0322C22.5283 14.2662 22.5615 14.1968 22.3098 14.1471C21.5009 14.382 20.0083 16.0409 20.1043 17.3492L20.0752 17.7923L24.1946 17.8058L24.2004 13.5419L23.3935 13.6511L23.0937 13.7279L23.0941 13.7275Z" fill="#CD932A"/>
<path fill-rule="evenodd" clip-rule="evenodd" d="M76.1873 24.1743L78.7516 24.1817L78.8214 21.4219L76.2238 21.4675L76.1873 24.1743Z" fill="#CD932A"/>
<path fill-rule="evenodd" clip-rule="evenodd" d="M79.208 21.4502C79.3608 22.1787 79.3218 23.3945 79.2478 24.1739L81.8356 24.1706L81.8233 21.4264L79.208 21.4502Z" fill="#CD932A"/>
<path fill-rule="evenodd" clip-rule="evenodd" d="M47.1905 8.49535C46.5869 8.43375 45.8001 7.95948 45.2281 7.74021C44.8647 7.61907 44.5941 7.49999 44.2738 7.34354C44.1839 6.51695 44.3834 5.44932 44.1588 4.74139L41.6873 4.13695C41.1157 4.14927 40.9194 3.94149 40.1848 4.01458C40.1104 3.9382 40.1778 3.92137 39.9216 3.84951C39.5643 3.74932 39.7068 3.79079 39.3331 3.80968C39.2034 3.5978 38.8634 3.65159 38.4868 3.61504C38.7172 3.89714 38.5439 3.75876 38.943 3.84006C39.1672 3.88564 39.18 3.84253 39.3331 3.80968L39.4596 3.96244C39.4707 3.97763 39.5159 4.05934 39.5434 4.08726L40.1844 4.01499L40.3342 4.11519C40.7974 4.33282 43.4398 4.77014 44.027 4.89086L44.0685 7.44784C44.521 7.70284 45.2396 7.98617 45.7286 8.22023C46.3245 8.50602 46.9137 8.69697 47.4537 8.95525C48.2733 7.7283 47.2742 1.65389 47.866 0.567778C48.3957 0.330435 49.66 0.438839 50.2993 0.50454C50.4459 1.13034 50.3741 2.29898 50.3642 3.0336C50.3527 3.86553 50.1995 5.40867 50.6118 5.85132L50.6131 0.297587L47.5592 0.291016L47.5465 8.67561C46.947 8.58568 47.3469 8.64358 47.1905 8.49576V8.49535Z" fill="#CD932A"/>
<path fill-rule="evenodd" clip-rule="evenodd" d="M79.2132 20.9686L81.8191 20.9817C81.7957 19.616 80.5359 18.4576 79.2112 18.3713L79.2132 20.9686Z" fill="#CD932A"/>
<path fill-rule="evenodd" clip-rule="evenodd" d="M76.1858 20.9657L78.7732 20.9895L78.8113 18.3467C77.4296 18.5212 76.2798 19.6114 76.1858 20.9657Z" fill="#CD932A"/>
<path fill-rule="evenodd" clip-rule="evenodd" d="M47.1904 8.49529C47.3465 8.64271 46.9469 8.58522 47.5464 8.67515L47.5592 0.29055L50.613 0.297121L50.6118 5.85086L50.6405 5.91614L51.0097 5.91861C50.9354 6.11817 51.3033 6.06602 51.5188 6.09189C51.4753 6.0381 51.6601 5.60448 51.0097 5.91861C50.9908 5.89643 50.9563 5.83648 50.9505 5.85496C50.9444 5.87262 50.9066 5.80486 50.8996 5.7909C50.893 5.77817 50.8655 5.74245 50.8586 5.72602C50.6331 5.16757 51.0889 1.16437 50.6676 0.128354C49.9022 0.0285718 48.0191 -0.00263968 47.4224 0.221973C47.114 1.08963 47.2931 7.04783 47.2931 8.43452L47.1904 8.49529Z" fill="#CD932A"/>
<path fill-rule="evenodd" clip-rule="evenodd" d="M57.1405 27.0311C56.6814 26.7716 43.9762 26.7527 43.6691 26.7527C44.2103 26.1967 44.6767 25.6781 45.1954 25.1254C45.5021 24.7989 45.6934 24.6059 46.0006 24.2861L49.1349 21.0807C49.3082 20.8951 49.3657 20.8499 49.5386 20.6651C49.7615 20.427 49.6975 20.5144 49.8757 20.2319C49.1049 20.7013 47.591 22.7639 46.6317 23.5141C45.907 24.0816 44.8952 25.3073 44.2037 26.0119C43.9084 26.3129 43.7729 26.5088 43.4875 26.8118C43.7922 26.9601 56.093 27.181 57.1409 27.0311H57.1405Z" fill="#CD932A"/>
<path fill-rule="evenodd" clip-rule="evenodd" d="M59.5052 11.1291L62.3492 10.6327C62.134 10.0701 60.2616 8.29167 59.8657 7.957C59.3192 7.49464 56.7195 7.09839 55.7205 6.95959C55.8408 7.21665 55.4917 7.17189 56.6238 7.37063C56.9729 7.43182 57.248 7.516 57.5847 7.57595C59.9306 7.99643 59.2925 7.76114 61.2656 9.72558C61.5662 10.0249 61.6984 10.0048 61.6967 10.3744L61.0791 10.6179C61.0738 10.6187 58.679 10.9386 59.5056 11.1291H59.5052Z" fill="#CD932A"/>
<path fill-rule="evenodd" clip-rule="evenodd" d="M20.0501 18.8172L24.2016 18.8381L24.1999 23.3304L20.0366 23.314L20.0501 18.8172ZM19.9668 23.4212L24.2504 23.4606C24.3835 22.8549 24.3814 19.2574 24.2459 18.6817L19.9803 18.671C19.83 19.2467 19.8366 22.8397 19.9672 23.4216L19.9668 23.4212Z" fill="#CD932A"/>
<path fill-rule="evenodd" clip-rule="evenodd" d="M25.2974 18.7306C26.3433 18.8308 28.6797 18.5898 29.4837 18.8308L29.4841 23.303C28.8612 23.4877 26.1572 23.3851 25.3269 23.3695L25.2974 18.7306ZM25.2974 18.7306L25.1771 19.2279C25.168 19.3967 25.1812 19.6455 25.1808 19.8245C25.1799 20.7205 25.0986 22.7802 25.2481 23.4253C25.8369 23.5888 29.0908 23.6072 29.6098 23.3954L29.6451 18.7191C28.9992 18.5093 27.2959 18.6177 26.3917 18.6128C26.2139 18.612 25.9634 18.5976 25.7947 18.6078L25.2974 18.7306Z" fill="#CD932A"/>
<path fill-rule="evenodd" clip-rule="evenodd" d="M79.208 21.4502L81.8233 21.4264L81.8356 24.1706L79.2479 24.1739C79.3218 23.3949 79.3608 22.1786 79.208 21.4502ZM79.2479 24.1496C79.6158 24.5048 81.4468 24.3521 81.9009 24.2478C82.082 23.5969 82.0159 22.053 81.9342 21.343C81.4193 21.1948 81.0591 21.2514 80.5229 21.251C78.8122 21.2486 79.1202 21.1081 79.1148 22.7601C79.114 22.9958 79.1111 23.2344 79.1124 23.4696C79.1193 24.4703 79.1366 23.9998 79.2475 24.15L79.2479 24.1496Z" fill="#CD932A"/>
<path fill-rule="evenodd" clip-rule="evenodd" d="M76.224 21.4675L78.8217 21.4219L78.7519 24.1821L76.1875 24.1743L76.224 21.4675ZM78.7798 24.1817C79.121 23.4672 78.8948 21.1135 78.733 21.3537L76.0992 21.2876C76.0257 24.7262 75.811 24.3267 77.3533 24.3205C77.9212 24.3176 78.4603 24.4063 78.7798 24.1821V24.1817Z" fill="#CD932A"/>
<path fill-rule="evenodd" clip-rule="evenodd" d="M23.3936 13.6507C22.9862 13.6006 23.1981 13.576 23.0938 13.7275C22.7694 13.7226 22.7608 13.6425 22.7234 13.9074C22.3522 13.8942 22.5001 13.8277 22.4918 14.0322C22.2627 13.9846 22.3095 13.9283 22.3095 14.1472C22.5612 14.1965 22.5276 14.2663 22.4918 14.0322C22.971 14.1242 22.6191 14.0507 22.7234 13.9074L23.0938 13.7275L23.3936 13.6507L24.2005 13.5415L24.1947 17.8055L20.0753 17.7919L20.1045 17.3489C19.9706 17.5184 19.9184 17.3879 19.9731 17.9036L24.2584 17.9537C24.3762 17.2856 24.4004 13.9813 24.2276 13.4183C23.2466 13.4278 23.4535 13.5908 23.3936 13.6503V13.6507Z" fill="#CD932A"/>
<path fill-rule="evenodd" clip-rule="evenodd" d="M25.279 17.8809C25.4539 17.9795 24.9419 17.9282 25.6761 18.016C25.819 18.0333 26.1175 18.0201 26.2743 18.0189C27.2024 18.0127 28.8325 18.0682 29.593 17.9466C29.6173 17.6912 29.6961 17.8193 29.5906 17.4719C29.4111 16.8811 29.6107 17.3722 29.3623 17.1632L29.4797 17.8555L25.2786 17.8805L25.3176 13.4646L25.5336 13.4893C25.5069 13.4663 25.4654 13.3829 25.4523 13.4207C25.4432 13.447 25.3911 13.4092 25.38 13.4129C25.3677 13.4166 25.3373 13.4462 25.3172 13.4646C25.1583 13.5969 25.2539 13.1985 25.1804 13.826C25.1656 13.95 25.1821 14.2793 25.1841 14.4222L25.1751 17.3668C25.1751 17.3709 25.1837 17.5561 25.1899 17.598C25.1952 17.6354 25.2042 17.6686 25.2108 17.7007C25.217 17.7306 25.2363 17.7701 25.242 17.7927C25.2478 17.8156 25.2658 17.8514 25.2782 17.8805L25.279 17.8809Z" fill="#CD932A"/>
<path fill-rule="evenodd" clip-rule="evenodd" d="M45.228 7.74026C45.2026 7.71645 45.1656 7.64418 45.1512 7.66881L44.8379 7.46802C44.5735 7.33662 44.5924 7.38178 44.4203 7.26147C44.3497 6.33715 44.7344 4.8207 43.9941 4.5234C43.8779 4.477 43.8187 4.47084 43.7029 4.4458L41.6868 4.1366L44.1583 4.74104C44.3834 5.44896 44.1834 6.51659 44.2733 7.34318C44.594 7.49963 44.8642 7.61831 45.2276 7.73985L45.228 7.74026Z" fill="#CD932A"/>
<path d="M10.188 30.0155V57.7616" stroke="#CD932A" stroke-width="2.28145" stroke-miterlimit="2.61313"/>
</svg>
